# xmcd
#
# Track frame offsets:
#	150
#	56425
#	88445
#	106832
#	128945
#	173697
#	211387
#	230430
#
# Disc length: 3297 seconds
#
# Revision: 0
# Processed by: cddbd v1.5.1PL0 Copyright (c) Steve Scherf et al.
# Submitted via: audiograbber 1.80.04
#
DISCID=690cdf08
DTITLE=S.R.Vaughan - live in Japan - Disk2
DYEAR=1900
DGENRE=
TTITLE0=Lenny
TTITLE1=Testify/Third stone from the sun
TTITLE2=testify
TTITLE3=Pride and Joy
TTITLE4=Texas Flood
TTITLE5=Little Wing
TTITLE6=Third Stone from the sun
TTITLE7=Tell me
EXTD=
EXTT0=
EXTT1=
EXTT2=
EXTT3=
EXTT4=
EXTT5=
EXTT6=
EXTT7=
PLAYORDER=
